<svg xmlns="http://www.w3.org/2000/svg" viewBox="0 0 720 300" role="img"
     aria-label="Training and validation loss falling from 6.0 to about 1.4 over 5000 iterations, then flat.">
  <rect x="46" y="20" width="656" height="242" fill="none" stroke="#C9BFAB" stroke-width="0.6" />
  
  <line x1="46" y1="183.9" x2="702" y2="183.9"
        stroke="#C9BFAB" stroke-width="0.5" stroke-dasharray="2 3" />
  <text x="38" y="187.4" text-anchor="end"
        font-family="'IBM Plex Mono', monospace" font-size="10" fill="#4A3D32">2.0</text>
  <line x1="46" y1="105.9" x2="702" y2="105.9"
        stroke="#C9BFAB" stroke-width="0.5" stroke-dasharray="2 3" />
  <text x="38" y="109.4" text-anchor="end"
        font-family="'IBM Plex Mono', monospace" font-size="10" fill="#4A3D32">4.0</text>
  <line x1="46" y1="27.8" x2="702" y2="27.8"
        stroke="#C9BFAB" stroke-width="0.5" stroke-dasharray="2 3" />
  <text x="38" y="31.3" text-anchor="end"
        font-family="'IBM Plex Mono', monospace" font-size="10" fill="#4A3D32">6.0</text>
  
  <text x="46.0" y="286" text-anchor="middle"
        font-family="'IBM Plex Mono', monospace" font-size="10" fill="#4A3D32">0</text>
  <text x="210.0" y="286" text-anchor="middle"
        font-family="'IBM Plex Mono', monospace" font-size="10" fill="#4A3D32">1250</text>
  <text x="374.0" y="286" text-anchor="middle"
        font-family="'IBM Plex Mono', monospace" font-size="10" fill="#4A3D32">2500</text>
  <text x="538.0" y="286" text-anchor="middle"
        font-family="'IBM Plex Mono', monospace" font-size="10" fill="#4A3D32">3750</text>
  <text x="702.0" y="286" text-anchor="middle"
        font-family="'IBM Plex Mono', monospace" font-size="10" fill="#4A3D32">5000</text>
  <text x="374.0" y="298" text-anchor="middle"
        font-family="'IBM Plex Mono', monospace" font-size="9.5" fill="#4A3D32" letter-spacing="0.12em">ITERATION</text>
  <path d="M49.3 26.4 L52.6 128.5 L55.8 135.7 L59.1 151.5 L62.4 147.4 L65.7 166.9 L69.0 166.6 L72.2 172.3 L78.8 181.2 L85.4 190.3 L88.6 199.0 L95.2 203.0 L101.8 201.1 L111.6 206.0 L114.9 140.8 L121.4 188.4 L131.3 189.1 L147.7 195.4 L160.8 198.8 L173.9 205.2 L190.3 204.3 L203.4 206.6 L229.7 204.0 L255.9 206.5 L282.2 206.6 L308.4 208.3 L334.6 208.2 L360.9 208.1 L383.8 203.6 L393.7 199.7 L413.4 208.5 L439.6 195.4 L449.4 206.5 L479.0 207.8 L505.2 208.2 L531.4 207.7 L567.5 205.5 L570.8 185.5 L580.6 141.9 L590.5 201.1 L610.2 204.8 L636.4 208.0 L649.5 208.3 L675.8 208.3 L702.0 208.3" fill="none" stroke="#3A3430" stroke-width="1.1" stroke-linejoin="round" />
  <path d="M46.1 106.8 L72.2 181.3 L98.5 193.7 L124.7 184.1 L151.0 196.6 L177.2 194.9 L203.4 205.4 L229.7 207.1 L255.9 207.2 L282.2 207.9 L308.4 207.6 L334.6 207.5 L360.9 208.1 L387.1 206.3 L413.4 206.8 L439.6 198.1 L465.8 206.2 L492.1 207.5 L518.3 205.7 L544.6 207.9 L570.8 197.4 L597.0 206.3 L623.3 207.6 L649.5 208.3 L675.8 208.3" fill="none" stroke="#B85C3B" stroke-width="1.4" stroke-linejoin="round" opacity="0.85" />
  <circle cx="46.1" cy="106.8" r="2.2" fill="#B85C3B" /><circle cx="72.2" cy="181.3" r="2.2" fill="#B85C3B" /><circle cx="98.5" cy="193.7" r="2.2" fill="#B85C3B" /><circle cx="124.7" cy="184.1" r="2.2" fill="#B85C3B" /><circle cx="151.0" cy="196.6" r="2.2" fill="#B85C3B" /><circle cx="177.2" cy="194.9" r="2.2" fill="#B85C3B" /><circle cx="203.4" cy="205.4" r="2.2" fill="#B85C3B" /><circle cx="229.7" cy="207.1" r="2.2" fill="#B85C3B" /><circle cx="255.9" cy="207.2" r="2.2" fill="#B85C3B" /><circle cx="282.2" cy="207.9" r="2.2" fill="#B85C3B" /><circle cx="308.4" cy="207.6" r="2.2" fill="#B85C3B" /><circle cx="334.6" cy="207.5" r="2.2" fill="#B85C3B" /><circle cx="360.9" cy="208.1" r="2.2" fill="#B85C3B" /><circle cx="387.1" cy="206.3" r="2.2" fill="#B85C3B" /><circle cx="413.4" cy="206.8" r="2.2" fill="#B85C3B" /><circle cx="439.6" cy="198.1" r="2.2" fill="#B85C3B" /><circle cx="465.8" cy="206.2" r="2.2" fill="#B85C3B" /><circle cx="492.1" cy="207.5" r="2.2" fill="#B85C3B" /><circle cx="518.3" cy="205.7" r="2.2" fill="#B85C3B" /><circle cx="544.6" cy="207.9" r="2.2" fill="#B85C3B" /><circle cx="570.8" cy="197.4" r="2.2" fill="#B85C3B" /><circle cx="597.0" cy="206.3" r="2.2" fill="#B85C3B" /><circle cx="623.3" cy="207.6" r="2.2" fill="#B85C3B" /><circle cx="649.5" cy="208.3" r="2.2" fill="#B85C3B" /><circle cx="675.8" cy="208.3" r="2.2" fill="#B85C3B" />
  <!-- legend -->
  <line x1="552" y1="32" x2="570" y2="32" stroke="#3A3430" stroke-width="1.1" />
  <text x="576" y="35.5" font-family="'IBM Plex Mono', monospace" font-size="10" fill="#4A3D32">train loss</text>
  <line x1="552" y1="48" x2="570" y2="48" stroke="#B85C3B" stroke-width="1.4" />
  <circle cx="561" cy="48" r="2.2" fill="#B85C3B" />
  <text x="576" y="51.5" font-family="'IBM Plex Mono', monospace" font-size="10" fill="#4A3D32">val loss</text>
</svg>
